<svg width="25" height="25" viewBox="0 0 25 25" fill="none" xmlns="http://www.w3.org/2000/svg">
<path d="M18.3298 1H6.83196C5.8661 1 4.91707 1.25289 4.07928 1.7335C3.48425 2.07486 2.9579 2.52391 2.52708 3.05774L2.47956 3.11663C2.14039 3.53691 1.86017 4.00152 1.64665 4.49759L1.58147 4.64903C1.19785 5.54031 1 6.50046 1 7.47079V17.5842C1 18.516 1.21094 19.4356 1.617 20.2742C1.85029 20.756 2.14526 21.2054 2.49449 21.6111L3.12937 22.3487C3.63877 22.9404 4.28618 23.3975 5.01432 23.6795C5.56144 23.8913 6.14307 24 6.72978 24H18.3492C18.8853 24 19.4183 23.9193 19.9304 23.7607C21.0022 23.4287 21.9422 22.7677 22.6173 21.8714L22.7369 21.7126C23.0928 21.2402 23.3763 20.7174 23.5782 20.1615L23.6076 20.0806C23.8672 19.3657 24 18.6109 24 17.8503V7.06269C24 6.36113 23.8616 5.66646 23.5926 5.01849C23.3813 4.50925 23.0922 4.03586 22.7358 3.6152L21.9355 2.67074C21.6986 2.3912 21.43 2.14015 21.1351 1.92265C20.3226 1.32334 19.3395 1 18.3298 1Z" stroke="#141313"/>
</svg>
