<svg width="29" height="25" viewBox="0 0 29 25" fill="none" xmlns="http://www.w3.org/2000/svg">
<path d="M11.5652 16.3333L18.8062 8.86523C19.2024 8.45655 18.7168 7.80915 18.2136 8.07511L7.6087 13.6795M11.5652 16.3333L15.2174 19.1212M11.5652 16.3333L9.73913 22.5256M7.6087 13.6795L9.73913 22.5256M7.6087 13.6795L1.08268 10.3916C0.684207 10.1909 0.728282 9.60831 1.15242 9.46979L26.8605 1.07395C27.0038 1.02717 27.1605 1.04748 27.287 1.12924L27.7011 1.39667C27.88 1.51225 27.9661 1.72849 27.9155 1.93541L22.6149 23.6187C22.5602 23.8425 22.3597 24 22.1292 24H21.7777C21.6681 24 21.5615 23.964 21.4743 23.8974L15.2174 19.1212M9.73913 22.5256L15.2174 19.1212" stroke="#141313"/>
</svg>
