<svg width="31" height="23" viewBox="0 0 31 23" fill="none" xmlns="http://www.w3.org/2000/svg">
<path d="M3.12844 1.50602H1.50602C1.22655 1.50602 1 1.73258 1 2.01205V3.0241V5.04819L1.21291 9.30019C1.2482 10.0048 1.37349 10.702 1.58573 11.3748C1.90183 12.3768 2.40595 13.3094 3.07112 14.1227L3.92661 15.1687L3.96975 15.2143C5.53022 16.8631 7.30547 18.2945 9.24771 19.4699L10.578 20.2289L12.1743 20.988L14.1084 21.601C14.4141 21.698 14.7308 21.7561 15.051 21.774L18.3339 21.9576C18.7454 21.9806 19.0917 21.6531 19.0917 21.241V20.4819V17.6988C19.0917 16.6233 20.295 15.986 21.1847 16.5903L22.2934 17.3434C22.6342 17.575 22.8974 17.9038 23.0485 18.2871L23.4254 19.2428C23.5511 19.5617 23.7141 19.8647 23.9109 20.1455L24.1678 20.5119C24.5008 20.987 24.9688 21.3512 25.5111 21.5575C25.8404 21.6828 26.1897 21.747 26.542 21.747H27.8014C28.1914 21.747 28.57 21.6152 28.8757 21.3729C29.5277 20.8562 29.7196 19.9486 29.3324 19.2122L29.2018 18.9639L28.4037 17.1928L27.6055 15.1687C27.0755 14.1606 26.4216 13.2226 25.6591 12.3766L25.211 11.8795L26.8073 10.1084L27.1329 9.72149C27.6213 9.14091 28.0002 8.47645 28.2511 7.76047L28.2734 7.697C28.3601 7.44953 28.4649 7.20878 28.587 6.97668C28.9908 6.20858 29.2018 5.35379 29.2018 4.48599V3.78313V2.54957C29.2018 2.2014 29.0846 1.86337 28.869 1.58999C28.5751 1.21741 28.1268 1 27.6523 1H26.0092H24.9585C24.4593 1 24.0013 1.27664 23.7691 1.71842C23.6677 1.91128 23.6147 2.1259 23.6147 2.34378V3.7128C23.6147 4.26081 23.5115 4.80392 23.3104 5.31372L23.2301 5.51733C22.9607 6.20073 22.4915 6.78705 21.8838 7.19983L21.3165 7.58521C21.0804 7.74558 20.8015 7.83133 20.5161 7.83133C19.7295 7.83133 19.0917 7.19361 19.0917 6.40696V5.04819V3.0241C19.0917 1.90622 18.1855 1 17.0676 1H15.367H12.7064H12.1245C11.4173 1 10.844 1.57328 10.844 2.28047C10.844 2.74026 11.0906 3.16476 11.4899 3.39263L11.8618 3.60483C12.0685 3.72277 12.2527 3.87634 12.4059 4.05845L12.6287 4.32323C13.0296 4.79981 13.3124 5.36426 13.4541 5.97071L13.5977 6.58502C13.7126 7.07691 13.7706 7.58038 13.7706 8.08553V10.1084V12.8916V14.1145C13.7706 14.6619 13.1521 14.9805 12.7064 14.6627C11.4738 13.9928 10.3642 13.1182 9.42494 12.0762L9.24771 11.8795C8.04069 10.7317 7.25097 9.21407 7.00353 7.56689L6.94829 7.1992C6.88499 6.77783 6.85321 6.35233 6.85321 5.92623V3.33543C6.85321 3.12936 6.81839 2.92476 6.75023 2.73029C6.49318 1.99695 5.80089 1.50602 5.02381 1.50602H3.12844Z" stroke="#141313"/>
</svg>
